<?xml version="1.0" encoding="UTF-8" standalone="no"?>
<!-- Created with Inkscape (http://www.inkscape.org/) -->

<svg
   xmlns:dc="http://purl.org/dc/elements/1.1/"
   xmlns:cc="http://creativecommons.org/ns#"
   xmlns:rdf="http://www.w3.org/1999/02/22-rdf-syntax-ns#"
   xmlns:svg="http://www.w3.org/2000/svg"
   xmlns="http://www.w3.org/2000/svg"
   xmlns:sodipodi="http://sodipodi.sourceforge.net/DTD/sodipodi-0.dtd"
   xmlns:inkscape="http://www.inkscape.org/namespaces/inkscape"
   width="2011.3579"
   height="2201.0149"
   id="svg2985"
   version="1.1"
   inkscape:version="0.48.5 r10040"
   sodipodi:docname="books.svg">
  <defs
     id="defs2987">
    <inkscape:path-effect
       effect="skeletal"
       id="path-effect3164"
       is_visible="true"
       pattern="M 0,0 0,10 10,5 z"
       copytype="single_stretched"
       prop_scale="1"
       scale_y_rel="false"
       spacing="0"
       normal_offset="0"
       tang_offset="0"
       prop_units="false"
       vertical_pattern="false"
       fuse_tolerance="0" />
    <inkscape:path-effect
       effect="skeletal"
       id="path-effect3139"
       is_visible="true"
       pattern="M 0,0 0,10 10,5 z"
       copytype="single_stretched"
       prop_scale="1"
       scale_y_rel="false"
       spacing="0"
       normal_offset="0"
       tang_offset="0"
       prop_units="false"
       vertical_pattern="false"
       fuse_tolerance="0" />
    <inkscape:path-effect
       effect="skeletal"
       id="path-effect3099"
       is_visible="true"
       pattern="M 0,0 0,10 10,5 z"
       copytype="single_stretched"
       prop_scale="1"
       scale_y_rel="false"
       spacing="0"
       normal_offset="0"
       tang_offset="0"
       prop_units="false"
       vertical_pattern="false"
       fuse_tolerance="0" />
    <inkscape:path-effect
       effect="skeletal"
       id="path-effect3139-4"
       is_visible="true"
       pattern="m 1989.1002,-3.1586386 0,10 10,-5 z"
       copytype="single_stretched"
       prop_scale="1"
       scale_y_rel="false"
       spacing="0"
       normal_offset="0"
       tang_offset="0"
       prop_units="false"
       vertical_pattern="false"
       fuse_tolerance="0" />
  </defs>
  <sodipodi:namedview
     id="base"
     pagecolor="#ffffff"
     bordercolor="#ffffff"
     borderopacity="0.0"
     inkscape:pageopacity="0.0"
     inkscape:pageshadow="0"
     inkscape:zoom="0.2"
     inkscape:cx="1100.8318"
     inkscape:cy="905.28531"
     inkscape:document-units="px"
     inkscape:current-layer="layer1"
     showgrid="false"
     inkscape:window-width="1600"
     inkscape:window-height="841"
     inkscape:window-x="0"
     inkscape:window-y="0"
     inkscape:window-maximized="1"
     fit-margin-top="0.5"
     fit-margin-left="0.5"
     fit-margin-bottom="0.5"
     fit-margin-right="0.5" />
  <metadata
     id="metadata2990">
    <rdf:RDF>
      <cc:Work
         rdf:about="">
        <dc:format>image/svg+xml</dc:format>
        <dc:type
           rdf:resource="http://purl.org/dc/dcmitype/StillImage" />
        <dc:title />
      </cc:Work>
    </rdf:RDF>
  </metadata>
  <g
     inkscape:label="Layer 1"
     inkscape:groupmode="layer"
     id="layer1"
     transform="translate(1005.5,548.15271)">
    <path
       style="fill:none;stroke:#000000;stroke-width:2.09236121px;stroke-linecap:butt;stroke-linejoin:miter;stroke-opacity:1"
       d="M -998.95382,53.408359 -1.0461806,1051.316 z"
       id="path2997"
       inkscape:connector-curvature="0" />
    <path
       style="fill:none;stroke:#000000;stroke-width:2.28357744px;stroke-linecap:butt;stroke-linejoin:miter;stroke-opacity:1"
       d="M 1.1417887,1051.2204 C 998.85822,53.503983 998.85822,53.503983 998.85822,53.503983 z"
       id="path2999"
       inkscape:connector-curvature="0" />
    <path
       style="fill:none;stroke:#000000;stroke-width:2.09236121px;stroke-linecap:butt;stroke-linejoin:miter;stroke-opacity:1"
       d="M -998.95382,353.40836 -1.0461291,1351.316 z"
       id="path2997-2"
       inkscape:connector-curvature="0" />
    <path
       style="fill:none;stroke:#000000;stroke-width:2.28357744px;stroke-linecap:butt;stroke-linejoin:miter;stroke-opacity:1"
       d="M 1.1418459,1351.2204 C 998.85821,353.50398 998.85821,353.50398 998.85821,353.50398 z"
       id="path2999-0"
       inkscape:connector-curvature="0" />
    <path
       style="fill:none;stroke:#000000;stroke-width:2.09236121px;stroke-linecap:butt;stroke-linejoin:miter;stroke-opacity:1"
       d="M -998.95382,-246.59165 -1.0461794,751.31599 z"
       id="path2997-8"
       inkscape:connector-curvature="0" />
    <path
       style="fill:none;stroke:#000000;stroke-width:2.28357744px;stroke-linecap:butt;stroke-linejoin:miter;stroke-opacity:1"
       d="M 1.1418006,751.22039 C 998.85824,-246.49603 998.85824,-246.49603 998.85824,-246.49603 z"
       id="path2999-7"
       inkscape:connector-curvature="0" />
    <path
       style="fill:none;stroke:#000000;stroke-width:2.09236121px;stroke-linecap:butt;stroke-linejoin:miter;stroke-opacity:1"
       d="M -998.95382,-546.59165 -1.0462194,451.31599 z"
       id="path2997-8-6"
       inkscape:connector-curvature="0" />
    <path
       style="fill:none;stroke:#000000;stroke-width:2.28357744px;stroke-linecap:butt;stroke-linejoin:miter;stroke-opacity:1"
       d="M 1.1417606,451.22039 C 998.85816,-546.49603 998.85816,-546.49603 998.85816,-546.49603 z"
       id="path2999-7-8"
       inkscape:connector-curvature="0" />
    <path
       style="fill:none;stroke:#000000;stroke-width:2.09236121px;stroke-linecap:butt;stroke-linejoin:miter;stroke-opacity:1"
       d="M -998.95382,653.40835 -1.0462194,1651.316 z"
       id="path2997-8-6-4"
       inkscape:connector-curvature="0" />
    <path
       style="fill:none;stroke:#000000;stroke-width:2.28357744px;stroke-linecap:butt;stroke-linejoin:miter;stroke-opacity:1"
       d="M 1.1418006,1651.2204 C 998.85821,653.50397 998.85821,653.50397 998.85821,653.50397 z"
       id="path2999-7-8-9"
       inkscape:connector-curvature="0" />
    <path
       style="fill:#000080;fill-rule:evenodd;stroke:none"
       d="m -995,-547.63782 -10,0 c 0.7264,348.66958 1.4528,697.33916 2.1792,1046.00873 0,4e-5 0,8e-5 0,1.2e-4 0.093,44.57878 0.1857,89.15756 0.2786,133.73635 0.012,5.82267 0.024,11.64534 0.036,17.46801 0,0 0,0 0,0 0,2e-5 0,4e-5 0,6e-5 0,2e-5 0,4e-5 0,6e-5 0,0.79112 0,1.58224 0,2.37336 0,2e-5 0,4e-5 0,6e-5 0.8339,0.11512 1.6675,0.23024 2.5009,0.34536 3e-5,0.0186 7e-5,0.0373 1.1e-4,0.0559 1e-5,0.003 2e-5,0.007 2e-5,0.0105 0.83325,-399.99849 0.8332,-799.99849 -1.3e-4,-1199.99849 -0.8333,400 -0.8334,800 -10e-5,1200 0,-0.005 0,-0.008 0,-0.012 0,-0.0186 10e-5,-0.0373 1.1e-4,-0.0559 0.83338,-0.11512 1.667,-0.23024 2.50086,-0.34535 0,-4e-5 0,-8e-5 0,-1.2e-4 0.002,-0.79111 0.003,-1.58221 0.005,-2.37331 0,-4e-5 0,-8e-5 0,-1.2e-4 0.0121,-5.82267 0.0243,-11.64534 0.0364,-17.46801 0.0929,-44.57879 0.18575,-89.15757 0.27863,-133.73635 0,-4e-5 0,-8e-5 0,-1.2e-4 0.7264,-348.66957 1.45278,-697.33915 2.17917,-1046.00873 z"
       id="path3137"
       inkscape:path-effect="#path-effect3139"
       inkscape:original-d="m -1000,-547.63782 c 2e-5,1208.82353 0,1200 0,1200 z"
       inkscape:connector-curvature="0"
       sodipodi:nodetypes="ccc" />
    <path
       style="fill:#000080;fill-rule:evenodd;stroke:none"
       d="m 1005,-547.65271 -9.99998,0.0298 c 1.7686,349.4104 3.82583,698.80961 3.52931,1048.20896 0,2e-5 0,4e-5 0,6e-5 -0.0375,44.12069 -0.004,88.22904 -0.55705,132.32081 0,0 0,0 0,0 0,2e-5 0,4e-5 0,6e-5 0,2e-5 0,4e-5 -10e-6,6e-5 -0.0708,5.6314 -0.12413,11.23947 -0.32168,16.81972 0,2e-5 0,4e-5 0,6e-5 -0.0271,0.74025 -0.0471,1.43631 -0.0993,2.08551 0,3e-5 0,7e-5 0,10e-5 1.6e-4,4e-5 3.2e-4,7e-5 4.9e-4,1.1e-4 0.81661,0.17667 1.64526,0.27686 2.4768,0.29926 -0,0.0176 0,0.0418 -0.012,0.0516 0.8225,-399.86742 0.8171,-799.80117 -0.016,-1199.80117 -0.83333,400 -0.83867,800.06625 -0.016,1200.19876 0.0151,-0.01 0.01,-0.034 0.0128,-0.0516 0.8633,-0.17354 1.7068,-0.27158 2.5396,-0.29267 0,-4e-5 0,-9e-5 0,-1.3e-4 0.066,-0.8105 0.094,-1.57894 0.1213,-2.30215 0,-4e-5 0,-8e-5 0,-1.2e-4 0.2236,-5.66548 0.3013,-11.31197 0.395,-16.93298 0,-4e-5 0,-8e-5 0,-1.2e-4 0.7368,-44.13403 0.8878,-88.26434 1.109,-132.37849 0,-4e-5 0,-8e-5 0,-1.2e-4 1.7524,-349.42037 1.1511,-698.84602 0.8383,-1048.25525 z"
       id="path3137-3"
       inkscape:path-effect="#path-effect3139-4"
       inkscape:original-d="m 1000,-547.63782 c 3.5741,1200.00019 0,1200 0,1200 z"
       inkscape:connector-curvature="0"
       sodipodi:nodetypes="ccc" />
    <path
       style="fill:#000080;fill-rule:evenodd;stroke:none"
       d="m 5,452.36218 -10,0 c 0.7273484,349.1274 1.4546968,698.25482 2.1820453,1047.38222 0,0 0,0 10e-8,0 0.092276,44.2923 0.1845509,88.5845 0.2768264,132.8768 0.011877,5.7009 0.023754,11.4018 0.035631,17.1027 1e-7,0 1e-7,10e-5 1e-7,10e-5 0.00157,0.7544 0.00314,1.5089 0.00472,2.2634 1.585e-4,0 3.171e-4,0 4.757e-4,0 0.8336502,0.1052 1.66708133,0.2103 2.50029349983,0.3155 3.3444233e-5,0.016 6.6887123e-5,0.032 1.0032869e-4,0.048 m 4.8e-11,0.011 C 0.83336219,1252.3622 0.83333298,852.36219 0,452.36218 -0.83333298,852.36219 -0.83336219,1252.3622 -8.7628568e-5,1652.3622 m -4.9e-11,-0.011 c 3.3441488e-5,-0.016 6.6884336e-5,-0.032 1.00328527e-4,-0.048 C 0.83306638,1652.1978 1.666339,1652.0926 2.4998305,1651.9875 c 3.172e-4,0 6.343e-4,-10e-5 9.514e-4,-10e-5 1e-7,-10e-5 2e-7,-10e-5 3e-7,-10e-5 0.00157,-0.7544 0.00314,-1.5089 0.00472,-2.2633 10e-8,0 2e-7,0 3e-7,-10e-5 0.011877,-5.7009 0.023754,-11.4017 0.03563,-17.1026 0,0 0,0 0,0 10e-8,-10e-5 2e-7,-10e-5 3e-7,-10e-5 0.092275,-44.2923 0.1845508,-88.5845 0.2768263,-132.8767 1e-7,0 1e-7,-10e-5 2e-7,-10e-5 C 3.5453031,1150.617 4.2726516,801.48958 5,452.36218"
       id="path3162"
       inkscape:path-effect="#path-effect3164"
       inkscape:original-d="M 0,452.36218 C -2.9411765e-8,1655.3034 0,1652.3622 0,1652.3622 z"
       inkscape:connector-curvature="0"
       sodipodi:nodetypes="ccc" />
    <path
       style="fill:#ff2a2a;fill-opacity:1;stroke:none"
       d="m -500.69759,548.90122 -493.38235,-493.389709 0,-147.054444 0,-147.054457 494.1455,494.14552 494.1455267,494.1455 -0.7631765,146.29862 -0.763147,146.29865 L -500.69759,548.90122 z"
       id="path3168"
       inkscape:connector-curvature="0" />
    <path
       style="fill:#501616;fill-opacity:1;stroke:none"
       d="m -500.70085,1148.8972 -496.32027,-496.32681 0.34378,-126.46734 c 0.18908,-69.55703 1.18172,-134.7544 2.20588,-144.88305 l 1.86211,-18.41571 493.48176,493.5184 493.4817649,493.51841 1.8477647,147.6914 c 1.0162647,81.2303 1.3009412,147.6915 0.6326177,147.6915 -0.6683235,0 -224.5592673,-223.3471 -497.5354073,-496.3268 z"
       id="path3170"
       inkscape:connector-curvature="0" />
    <path
       style="fill:#c83737;fill-opacity:1;stroke:none"
       d="m -500.69759,848.90122 -493.38235,-493.38971 0,-147.05444 0,-147.054462 494.1455,494.145522 494.1455267,494.14547 -0.7631765,146.2986 -0.763147,146.2987 L -500.69759,848.90122 z"
       id="path3172"
       inkscape:connector-curvature="0" />
    <path
       style="fill:#e9afaf;fill-opacity:1;stroke:none"
       d="m -500.69759,248.90122 -493.38235,-493.38971 0,-147.05444 0,-147.05446 494.1455,494.145518 L -5.7889133,449.69363 -6.5520898,595.99225 -7.3152368,742.29089 -500.69759,248.90122 z"
       id="path3174"
       inkscape:connector-curvature="0" />
    <path
       style="fill:#ff6600;fill-opacity:1;stroke:none"
       d="M 3.5475417,1497.3625 4.5864096,1350.9715 500.84147,854.71648 997.09653,358.46142 l 0,145.59041 0,145.59041 L 499.80259,1146.6978 2.5086738,1643.7534 3.5475417,1497.3625 z"
       id="path3176"
       inkscape:connector-curvature="0" />
    <path
       style="fill:#ffd42a;fill-opacity:1;stroke:none"
       d="m 5.9200573,1195.2174 0,-145.5882 L 501.50829,554.04748 997.09653,58.465792 l 0,145.588238 0,145.58823 -495.58824,495.58169 -495.5882327,495.58165 0,-145.5882 z"
       id="path3178"
       inkscape:connector-curvature="0" />
    <path
       style="fill:#917c6f;fill-opacity:1;stroke:none"
       d="m 5.9200573,895.21739 0,-145.58823 493.6383527,-493.6318 493.63835,-493.6318 1.94989,84.55476 c 1.07244,46.50512 1.94988,111.142376 1.94988,143.6383494 l 0,59.0835946 L 501.50829,545.22395 5.9200573,1040.8056 l 0,-145.58821 z"
       id="path3180"
       inkscape:connector-curvature="0" />
    <path
       style="fill:#00ff00;fill-opacity:1;stroke:none"
       d="m 5.9200573,595.21739 0,-145.58823 L 500.0377,-44.481931 994.15535,-538.59301 l 0,145.58823 0,145.58824 L 500.0377,246.69454 5.9200573,740.80563 l 0,-145.58824 z"
       id="path3182"
       inkscape:connector-curvature="0" />
  </g>
</svg>
