<?xml version="1.0" encoding="UTF-8" standalone="no"?>
<!-- Created with Inkscape (http://www.inkscape.org/) -->

<svg
   xmlns:dc="http://purl.org/dc/elements/1.1/"
   xmlns:cc="http://creativecommons.org/ns#"
   xmlns:rdf="http://www.w3.org/1999/02/22-rdf-syntax-ns#"
   xmlns:svg="http://www.w3.org/2000/svg"
   xmlns="http://www.w3.org/2000/svg"
   xmlns:sodipodi="http://sodipodi.sourceforge.net/DTD/sodipodi-0.dtd"
   xmlns:inkscape="http://www.inkscape.org/namespaces/inkscape"
   width="1004"
   height="1004"
   id="svg2985"
   version="1.1"
   inkscape:version="0.48.5 r10040"
   sodipodi:docname="audio.svg">
  <defs
     id="defs2987" />
  <sodipodi:namedview
     id="base"
     pagecolor="#ffffff"
     bordercolor="#ffffff"
     borderopacity="0.0"
     inkscape:pageopacity="0.0"
     inkscape:pageshadow="0"
     inkscape:zoom="0.35"
     inkscape:cx="104.58242"
     inkscape:cy="486.07021"
     inkscape:document-units="px"
     inkscape:current-layer="layer1"
     showgrid="false"
     inkscape:window-width="1598"
     inkscape:window-height="826"
     inkscape:window-x="0"
     inkscape:window-y="0"
     inkscape:window-maximized="1"
     fit-margin-top="2"
     fit-margin-left="2"
     fit-margin-right="2"
     fit-margin-bottom="2" />
  <metadata
     id="metadata2990">
    <rdf:RDF>
      <cc:Work
         rdf:about="">
        <dc:format>image/svg+xml</dc:format>
        <dc:type
           rdf:resource="http://purl.org/dc/dcmitype/StillImage" />
        <dc:title></dc:title>
      </cc:Work>
    </rdf:RDF>
  </metadata>
  <g
     inkscape:label="Layer 1"
     inkscape:groupmode="layer"
     id="layer1"
     transform="translate(502,-50.362183)">
    <rect
       style="fill:#241f1c;fill-opacity:1;stroke:none"
       id="rect2993"
       width="1000"
       height="1000"
       x="-500"
       y="52.362183"
       rx="1.25"
       ry="1.25" />
    <rect
       style="fill:#ffffff;fill-opacity:1;stroke:none"
       id="rect3113"
       width="750"
       height="750"
       x="123.23861"
       y="129.2079"
       rx="0.9375"
       ry="1.6420051"
       transform="translate(-502,50.362183)" />
    <path
       style="fill:#241f1c;stroke:#000000;stroke-width:1px;stroke-linecap:butt;stroke-linejoin:miter;stroke-opacity:0;opacity:1"
       d="m 92.934034,343.36024 151.522886,270.72088 24.24366,-105.05587 92.93403,96.97465 46.46702,-64.64977 84.85281,139.40106 40.4061,-242.43662 34.34519,173.74624 40.4061,-54.54823 70.71068,80.8122 c 0,0 86.87312,-107.07617 86.87312,-115.15739 0,-8.08122 147.48227,177.78685 147.48227,177.78685 l 14.14214,216.17264 -874.792108,-2.0203 z"
       id="path3137"
       inkscape:connector-curvature="0"
       transform="translate(-502,50.362183)" />
    <path
       sodipodi:type="star"
       style="fill:#241f1c;fill-opacity:1;stroke:#000000;stroke-opacity:0"
       id="path3925"
       sodipodi:sides="25"
       sodipodi:cx="717.14288"
       sodipodi:cy="176.85715"
       sodipodi:r1="101.59945"
       sodipodi:r2="50.799725"
       sodipodi:arg1="2.0533096"
       sodipodi:arg2="2.1789733"
       inkscape:flatsided="false"
       inkscape:rounded="0"
       inkscape:randomized="0"
       d="m 670.00003,266.85714 18.1173,-48.30912 -39.01831,33.75766 29.5621,-42.28581 -46.18766,22.99363 39.1494,-33.60553 -50.45488,10.78485 46.27682,-22.81369 -51.55183,-2.1016 50.49647,-10.58838 -49.40958,-14.85599 51.54325,2.30223 -44.16275,-26.67692 49.35138,15.04819 -36.14102,-36.82165 44.05859,26.84861 -25.84841,-44.652737 35.99743,36.962047 -13.93165,-49.678133 25.67441,44.753013 -1.13951,-51.582064 13.73819,49.731984 11.72422,-50.244905 0.93874,51.586105 23.85128,-45.750669 -11.9197,50.198889 34.47968,-38.381757 -24.02918,45.657487 42.9416,-28.60117 -34.62881,38.24726 48.70532,-17.02348 -43.05259,28.43382 51.40873,-4.37613 -48.77122,16.83378 50.88193,8.54618 -51.42537,4.176 47.15802,20.93151 -50.84827,-8.74416 40.47101,32.00163 -47.0762,-21.1149 31.24106,41.06097 -40.34615,-32.15891 20.04812,47.5403 -31.081,-41.18226 7.59547,51.03251 -19.86293,-47.61798 -5.33441,51.31814 -7.39679,-51.06168 -17.92913,48.37927 5.53412,-51.29699 z"
       transform="translate(-469.14286,130.36218)"
       inkscape:transform-center-x="4.5614926"
       inkscape:transform-center-y="-5.2607025" />
  </g>
</svg>
